<?xml version="1.0" encoding="UTF-8" standalone="no"?>
<!-- Created with Inkscape (http://www.inkscape.org/) -->

<svg
   xmlns:dc="http://purl.org/dc/elements/1.1/"
   xmlns:cc="http://creativecommons.org/ns#"
   xmlns:rdf="http://www.w3.org/1999/02/22-rdf-syntax-ns#"
   xmlns:svg="http://www.w3.org/2000/svg"
   xmlns="http://www.w3.org/2000/svg"
   xmlns:sodipodi="http://sodipodi.sourceforge.net/DTD/sodipodi-0.dtd"
   xmlns:inkscape="http://www.inkscape.org/namespaces/inkscape"
   width="800"
   height="400"
   id="svg2"
   version="1.1"
   inkscape:version="0.48.3.1 r9886"
   sodipodi:docname="TH.svg">
  <defs
     id="defs4" />
  <sodipodi:namedview
     id="base"
     pagecolor="#ffffff"
     bordercolor="#666666"
     borderopacity="1.0"
     inkscape:pageopacity="0.0"
     inkscape:pageshadow="2"
     inkscape:zoom="0.9899495"
     inkscape:cx="257.97249"
     inkscape:cy="200.78643"
     inkscape:document-units="px"
     inkscape:current-layer="layer1"
     showgrid="false"
     inkscape:window-width="1855"
     inkscape:window-height="1056"
     inkscape:window-x="65"
     inkscape:window-y="24"
     inkscape:window-maximized="1" />
  <metadata
     id="metadata7">
    <rdf:RDF>
      <cc:Work
         rdf:about="">
        <dc:format>image/svg+xml</dc:format>
        <dc:type
           rdf:resource="http://purl.org/dc/dcmitype/StillImage" />
        <dc:title></dc:title>
      </cc:Work>
    </rdf:RDF>
  </metadata>
  <g
     inkscape:label="Layer 1"
     inkscape:groupmode="layer"
     id="layer1"
     transform="translate(0,-652.36218)">
    <path
       style="fill:#c8c8c8;fill-opacity:1;stroke:#000000;stroke-width:1.60411167px;stroke-linecap:butt;stroke-linejoin:miter;stroke-opacity:1"
       d="M 62.367301,669.33531 26.815285,1031.3717 375.72107,940.06871 z"
       id="path2987"
       inkscape:connector-curvature="0" />
    <path
       sodipodi:type="arc"
       style="fill:#000000;fill-opacity:1;stroke:#000000;stroke-width:0.96600002;stroke-miterlimit:4;stroke-opacity:0.99607843;stroke-dasharray:none"
       id="path2989"
       sodipodi:cx="162.38202"
       sodipodi:cy="177.76643"
       sodipodi:rx="15.909903"
       sodipodi:ry="10.606602"
       d="m 178.29192,177.76643 a 15.909903,10.606602 0 1 1 -31.8198,0 15.909903,10.606602 0 1 1 31.8198,0 z"
       transform="matrix(1.0270901,0,0,1.6113391,-100.44588,388.02696)" />
    <path
       sodipodi:type="arc"
       style="fill:#000000;fill-opacity:1;stroke:#000000;stroke-width:0.96600002;stroke-miterlimit:4;stroke-opacity:0.99607843;stroke-dasharray:none"
       id="path2989-0"
       sodipodi:cx="162.38202"
       sodipodi:cy="177.76643"
       sodipodi:rx="15.909903"
       sodipodi:ry="10.606602"
       d="m 178.29192,177.76643 a 15.909903,10.606602 0 1 1 -31.8198,0 15.909903,10.606602 0 1 1 31.8198,0 z"
       transform="matrix(1.0270901,0,0,1.6113391,204.95517,649.24756)" />
    <path
       sodipodi:type="arc"
       style="fill:#000000;fill-opacity:1;stroke:#000000;stroke-width:0.96600002;stroke-miterlimit:4;stroke-opacity:0.99607843;stroke-dasharray:none"
       id="path2989-1"
       sodipodi:cx="162.38202"
       sodipodi:cy="177.76643"
       sodipodi:rx="15.909903"
       sodipodi:ry="10.606602"
       d="m 178.29192,177.76643 a 15.909903,10.606602 0 1 1 -31.8198,0 15.909903,10.606602 0 1 1 31.8198,0 z"
       transform="matrix(1.0270901,0,0,1.6113391,-137.48654,740.16129)" />
    <path
       sodipodi:type="arc"
       style="fill:#000000;fill-opacity:1;stroke:#000000;stroke-width:0.96600002;stroke-miterlimit:4;stroke-opacity:0.99607843;stroke-dasharray:none"
       id="path2989-6"
       sodipodi:cx="162.38202"
       sodipodi:cy="177.76643"
       sodipodi:rx="15.909903"
       sodipodi:ry="10.606602"
       d="m 178.29192,177.76643 a 15.909903,10.606602 0 1 1 -31.8198,0 15.909903,10.606602 0 1 1 31.8198,0 z"
       transform="matrix(1.0270901,0,0,1.6113391,-122.83933,558.83891)" />
    <path
       sodipodi:type="arc"
       style="fill:#000000;fill-opacity:1;stroke:#000000;stroke-width:0.96600002;stroke-miterlimit:4;stroke-opacity:0.99607843;stroke-dasharray:none"
       id="path2989-64"
       sodipodi:cx="162.38202"
       sodipodi:cy="177.76643"
       sodipodi:rx="15.909903"
       sodipodi:ry="10.606602"
       d="m 178.29192,177.76643 a 15.909903,10.606602 0 1 1 -31.8198,0 15.909903,10.606602 0 1 1 31.8198,0 z"
       transform="matrix(1.0270901,0,0,1.6113391,46.361223,513.88711)" />
    <path
       sodipodi:type="arc"
       style="fill:#000000;fill-opacity:1;stroke:#000000;stroke-width:0.96600002;stroke-miterlimit:4;stroke-opacity:0.99607843;stroke-dasharray:none"
       id="path2989-5"
       sodipodi:cx="162.38202"
       sodipodi:cy="177.76643"
       sodipodi:rx="15.909903"
       sodipodi:ry="10.606602"
       d="m 178.29192,177.76643 a 15.909903,10.606602 0 1 1 -31.8198,0 15.909903,10.606602 0 1 1 31.8198,0 z"
       transform="matrix(1.0270901,0,0,1.6113391,24.137867,701.27042)" />
    <path
       style="fill:#c8c8c8;fill-opacity:1;stroke:#000000;stroke-width:1.60411167px;stroke-linecap:butt;stroke-linejoin:miter;stroke-opacity:1"
       d="M 466.79126,670.16131 431.23925,1032.1977 780.14503,940.89472 z"
       id="path2987-0"
       inkscape:connector-curvature="0" />
    <path
       sodipodi:type="arc"
       style="fill:#000000;fill-opacity:1;stroke:#000000;stroke-width:0.96600002;stroke-miterlimit:4;stroke-opacity:0.99607843;stroke-dasharray:none"
       id="path2989-8"
       sodipodi:cx="162.38202"
       sodipodi:cy="177.76643"
       sodipodi:rx="15.909903"
       sodipodi:ry="10.606602"
       d="m 178.29192,177.76643 a 15.909903,10.606602 0 1 1 -31.8198,0 15.909903,10.606602 0 1 1 31.8198,0 z"
       transform="matrix(1.0270901,0,0,1.6113391,403.97808,592.85296)" />
  </g>
</svg>
